# xmcd CD database file
#
# Track frame offsets:
#	150
#	14232
#	26860
#	41247
#	53985
#	65880
#	78895
#	92085
#	107227
#	120090
#	133207
#	146475
#	159500
#	171020
#	183237
#	197592
#	211542
#	225707
#	240337
#	254205
#
# Disc length: 3579 seconds
#
# Revision: 1
# Processed by: cddbd v1.5.2PL0 Copyright (c) Steve Scherf et al.
# Submitted via: CDex 1.51
#
DISCID=1c0df914
DTITLE=Johnny Mercer - Sugar Blues
DYEAR=1999
DGENRE=Blues
TTITLE0=On the Atchison, Topeka and The Santa Fe
TTITLE1=Ac-Cent-Tchu-Ate The Positive
TTITLE2=Candy
TTITLE3=Personality
TTITLE4=Gal In Calico
TTITLE5=Sugar Blues
TTITLE6=Winter Wonderland
TTITLE7=G.I. Jive
TTITLE8=Baby, It's Cold Outside
TTITLE9=Glow Worm
TTITLE10=Strip Polka
TTITLE11=Zip-A-Dee-Doo-Daa
TTITLE12=I'm Gonna See My Baby
TTITLE13=My Sugar Is So Refined
TTITLE14=Surprise Party
TTITLE15=Moon - Faced, Starry - Eyed
TTITLE16=One For My Baby (And One More For The Road)
TTITLE17=Blues In The Night
TTITLE18=Save The Bones For Henry Jones
TTITLE19=I Lost My Sugar In Salt Lake City
EXTD=YEAR: 1999
EXTT0=
EXTT1=
EXTT2=
EXTT3=
EXTT4=
EXTT5=
EXTT6=
EXTT7=
EXTT8=
EXTT9=
EXTT10=
EXTT11=
EXTT12=
EXTT13=
EXTT14=
EXTT15=
EXTT16=
EXTT17=
EXTT18=
EXTT19=
PLAYORDER=
